<svg width="211" height="38" viewBox="0 0 211 38" fill="none" xmlns="http://www.w3.org/2000/svg">
<g id="logo">
<g id="Linkbrary">
<path d="M8.45107 24.866V1.25437H0.208496V32.0971H23.9013V24.866H8.45107Z" fill="#6D6AFE"/>
<path d="M34.5354 32.0971V8.1165H26.2928V32.0971H34.5354ZM34.5354 6.27184V0H26.2928V6.27184H34.5354Z" fill="#6D6AFE"/>
<path d="M52.7297 7.37864C49.4771 7.37864 46.9267 8.59612 45.1895 10.6252V8.1165H36.9469V32.0971H45.1895V21.3612C45.2634 16.7495 47.2963 14.7942 50.6229 14.7942C53.469 14.7942 54.5779 16.233 54.5779 19.6641V32.0971H62.8204V18.2252C62.8204 10.9573 60.0852 7.37864 52.7297 7.37864Z" fill="#6D6AFE"/>
<path d="M73.106 15.9748V0H64.8635V32.0971H73.106V26.4524L76.5435 22.4311L80.5354 32.0971H89.6281L84.4165 19.3689H79.1678L88.8889 8.1165H79.9071L73.106 15.9748Z" fill="#6D6AFE"/>
<path d="M106.426 32.835C111.416 32.835 117.552 29.9942 117.552 20.1068C117.552 10.2194 111.416 7.37864 106.426 7.37864C103.654 7.37864 101.178 8.19029 99.1817 9.55534V0H90.9391V32.0971H99.1817V30.6583C101.178 32.0602 103.654 32.835 106.426 32.835ZM104.246 25.6408C101.399 25.6408 99.1817 24.2019 99.1817 20.1068V19.8117C99.2926 15.9748 101.473 14.5728 104.246 14.5728C107.424 14.5728 109.309 16.233 109.309 20.1068C109.309 24.0175 107.424 25.6408 104.246 25.6408Z" fill="#6D6AFE"/>
<path d="M118.856 32.0971H127.098V22.099C127.172 17.4505 129.279 14.7573 136.635 14.7573V7.37864C132.199 7.37864 129.057 8.92815 127.098 11.2524V8.1165H118.856V32.0971Z" fill="#6D6AFE"/>
<path d="M148.315 32.835C151.05 32.835 153.564 32.0602 155.56 30.6583V32.0971H163.802V8.1165H155.56V9.55534C153.564 8.19029 151.05 7.37864 148.315 7.37864C143.325 7.37864 137.19 10.2194 137.19 20.1068C137.19 29.9942 143.325 32.835 148.315 32.835ZM150.496 25.6408C147.317 25.6408 145.432 24.0175 145.432 20.1068C145.432 16.233 147.317 14.5728 150.496 14.5728C153.342 14.5728 155.56 16.0485 155.56 20.1068C155.56 24.2019 153.342 25.6408 150.496 25.6408Z" fill="#6D6AFE"/>
<path d="M165.845 32.0971H174.088V22.099C174.162 17.4505 176.269 14.7573 183.624 14.7573V7.37864C179.189 7.37864 176.047 8.92815 174.088 11.2524V8.1165H165.845V32.0971Z" fill="#6D6AFE"/>
<path d="M202.549 8.1165V18.5573C201.662 19.5534 200.073 19.9592 198.225 19.9592C194.307 19.9592 193.161 18.7417 193.161 16.4913V8.1165H184.918V17.0816C184.918 23.6485 189.576 27.1903 196.044 27.1903C198.447 27.1903 200.664 26.6738 202.549 25.7883V26.6738C202.549 29.9573 201.293 31.1379 198.04 31.1379C195.342 31.1379 194.048 30.3262 193.678 28.4447H185.399C186.064 35.233 189.723 38 198.04 38C207.096 38 210.792 34.6796 210.792 26.0466V8.1165H202.549Z" fill="#6D6AFE"/>
</g>
</g>
</svg>
