<svg width="17" height="16" viewBox="0 0 17 16" fill="none" xmlns="http://www.w3.org/2000/svg">
<path fill-rule="evenodd" clip-rule="evenodd" d="M9.02175 1.96603C9.02175 1.67148 8.78297 1.4327 8.48841 1.4327C8.19386 1.4327 7.95508 1.67148 7.95508 1.96603L7.95508 7.46668L2.4545 7.46668C2.15994 7.46668 1.92116 7.70546 1.92116 8.00001C1.92116 8.29456 2.15994 8.53335 2.4545 8.53335L7.95508 8.53335L7.95508 14.034C7.95508 14.3285 8.19387 14.5673 8.48842 14.5673C8.78297 14.5673 9.02175 14.3285 9.02175 14.034L9.02175 8.53335L14.5224 8.53335C14.817 8.53335 15.0558 8.29457 15.0558 8.00002C15.0558 7.70546 14.817 7.46668 14.5224 7.46668L9.02175 7.46668L9.02175 1.96603Z" fill="#E7EFFB"/>
</svg>
